<svg xmlns="http://www.w3.org/2000/svg" fill="none" viewBox="0 0 125 125">
  <path fill="#26A17B" d="M62.2 124.4A62.2 62.2 0 1 0 62.2 0a62.2 62.2 0 0 0 0 124.4Z"/>
  <path fill="#fff" d="M68.83 67.94v-.01c-.43.03-2.65.16-7.59.16-3.95 0-6.72-.11-7.7-.16v.01c-15.19-.67-26.52-3.31-26.52-6.48 0-3.16 11.34-5.81 26.52-6.48v10.33c.99.07 3.84.24 7.77.24 4.72 0 7.08-.2 7.52-.24V54.99c15.16.68 26.46 3.32 26.46 6.48 0 3.16-11.31 5.8-26.46 6.48m0-14.03v-9.24h21.15V30.59H32.4v14.09h21.15v9.24c-17.19.79-30.11 4.19-30.11 8.27 0 4.08 12.93 7.48 30.11 8.28v29.62h15.29V70.47C86 69.68 98.9 66.28 98.9 62.2c0-4.07-12.9-7.48-30.06-8.27"/>
</svg>
