<svg width="195" height="32" viewBox="0 0 195 32" fill="none" xmlns="http://www.w3.org/2000/svg">
<path d="M24.447 19.3659L17.8072 26.1543C17.6229 26.3424 17.3218 26.3462 17.1337 26.1618L10.3321 19.5108C10.144 19.3264 10.1402 19.0235 10.3246 18.8354L14.0895 14.9859C14.3867 14.6811 14.9041 14.888 14.9079 15.3133L14.9399 18.1148C14.9399 18.2408 14.891 18.3631 14.8025 18.4534L14.144 19.127C13.9596 19.3151 13.9634 19.6181 14.1515 19.8006L17.0791 22.6642C17.2729 22.8542 17.5871 22.8429 17.7677 22.6416L20.6727 19.3942C20.8439 19.2041 20.8327 18.9144 20.6501 18.7356L20.1233 18.2182C20.033 18.1298 19.9803 18.0094 19.9785 17.8833L19.9559 15.7008C19.9502 15.285 20.4451 15.063 20.7536 15.3434L24.4263 18.6792C24.6276 18.8617 24.6351 19.1722 24.447 19.3659Z" fill="#27615C"/>
<path d="M28.6968 9.92786L25.4362 13.1884C25.1784 13.4462 24.7607 13.4462 24.503 13.1884L22.8002 11.4857C22.5425 11.228 22.5425 10.8103 22.8002 10.5544C23.2142 10.1386 22.9206 9.42927 22.3336 9.42927H19.9799C19.6168 9.42927 19.3214 9.72278 19.3214 10.0878V19.307C19.3214 19.672 19.026 19.9674 18.6629 19.9674H16.2546C15.8896 19.9674 15.5942 19.672 15.5942 19.307V10.0878C15.5942 9.72278 15.3007 9.42927 14.9357 9.42927H12.3543C11.7673 9.42927 11.4738 10.1386 11.8896 10.5544L11.9498 10.6146C12.2075 10.8724 12.2075 11.29 11.9498 11.5459L10.247 13.2505C9.98928 13.5083 9.57159 13.5083 9.31383 13.2505L5.52643 9.46125L5.56029 9.42927L9.0937 5.89587C9.216 5.7717 9.38345 5.70208 9.55842 5.70208H25.1295C25.3045 5.70208 25.4719 5.7717 25.5961 5.89587L28.6968 8.99653C28.9545 9.25241 28.9545 9.6701 28.6968 9.92786Z" fill="#27615C"/>
<path d="M9.38388 1.95672C7.2597 1.95672 5.28791 3.10254 4.23617 4.94826L2.73099 7.58984C1.69242 9.41298 1.69806 11.6726 2.74604 13.4882L10.5937 27.08C11.6492 28.9087 13.6134 30.0433 15.7244 30.0433H18.6972C20.8082 30.0433 22.7724 28.9087 23.8279 27.0818L31.6699 13.4976C32.7217 11.6764 32.7236 9.41298 31.6793 7.58796L30.1572 4.93697C29.1055 3.09877 27.1356 1.95672 25.017 1.95672H9.38388ZM15.7226 32C12.9173 32 10.302 30.4892 8.89846 28.0583L1.05272 14.4666C-0.343338 12.0508 -0.350864 9.04421 1.03014 6.62088L2.5372 3.9793C3.93513 1.52399 6.55979 0 9.38388 0H25.017C27.8355 0 30.4545 1.51834 31.8562 3.96425L33.3764 6.61524C34.7668 9.04233 34.7631 12.0546 33.3633 14.476L25.5213 28.0583C24.1196 30.4892 21.5043 32 18.6972 32H15.7226Z" fill="#27615C"/>
<path d="M50.2898 28.2183V7.47321H42.9746V3.78177H61.9399V7.47321H54.6416V28.2183H50.2898Z" fill="white"/>
<path d="M61.0987 10.2679H65.1457V13.4005H65.2304C65.84 11.2161 67.4148 9.96308 69.5314 9.96308C70.0733 9.96308 70.5474 10.0647 70.8522 10.1324V13.9424C70.4966 13.8069 69.8532 13.7053 69.142 13.7053C66.7544 13.7053 65.315 15.2462 65.315 17.7693V28.219H61.0987V10.2679Z" fill="white"/>
<path d="M82.9655 21.2751V19.9035L78.8169 20.1575C76.7849 20.2929 75.6165 21.2073 75.6165 22.6297C75.6165 24.1029 76.8357 25.0342 78.6645 25.0342C81.0521 25.0342 82.9655 23.4425 82.9655 21.2751ZM71.4001 22.799C71.4001 19.6156 73.8555 17.7022 78.2242 17.4312L82.9655 17.1603V15.8734C82.9655 13.9938 81.6956 12.9101 79.6128 12.9101C77.6146 12.9101 76.3446 13.8752 76.0737 15.3654H72.1621C72.3484 12.0126 75.2101 9.60808 79.7821 9.60808C84.2355 9.60808 87.1311 11.9618 87.1311 15.5686V27.9298H83.0672V25.0681H82.9825C81.9496 27.0154 79.6974 28.2177 77.3945 28.2177C73.9232 28.2177 71.4001 26.0333 71.4001 22.799Z" fill="white"/>
<path d="M89.9981 10.2679H94.0451V13.3497H94.1298C95.095 11.2161 97.0084 9.92921 99.7686 9.92921C103.731 9.92921 105.985 12.4692 105.985 16.6178V28.219H101.767V17.4645C101.767 14.9245 100.581 13.5021 98.1768 13.5021C95.7554 13.5021 94.2144 15.2462 94.2144 17.8201V28.219H89.9981V10.2679Z" fill="white"/>
<path d="M115.777 9.53975C119.993 9.53975 122.855 11.8088 122.957 15.1277H119.028C118.893 13.5868 117.657 12.6385 115.692 12.6385C113.83 12.6385 112.61 13.5191 112.61 14.8229C112.61 15.8389 113.423 16.5162 115.184 16.9396L118.385 17.6508C121.975 18.4974 123.38 19.8859 123.38 22.5445C123.38 25.933 120.247 28.219 115.709 28.219C111.205 28.219 108.343 25.9838 108.055 22.5783H112.204C112.458 24.2208 113.728 25.1352 115.862 25.1352C117.911 25.1352 119.181 24.3055 119.181 22.9678C119.181 21.9179 118.52 21.3591 116.776 20.9189L113.508 20.1569C110.189 19.3779 108.513 17.6508 108.513 15.06C108.513 11.7749 111.408 9.53975 115.777 9.53975Z" fill="white"/>
<path d="M136.408 21.2751V19.9035L132.259 20.1575C130.227 20.2929 129.059 21.2073 129.059 22.6297C129.059 24.1029 130.278 25.0342 132.107 25.0342C134.494 25.0342 136.408 23.4425 136.408 21.2751ZM124.842 22.799C124.842 19.6156 127.298 17.7022 131.667 17.4312L136.408 17.1603V15.8734C136.408 13.9938 135.138 12.9101 133.055 12.9101C131.057 12.9101 129.787 13.8752 129.516 15.3654H125.604C125.791 12.0126 128.652 9.60808 133.224 9.60808C137.678 9.60808 140.573 11.9618 140.573 15.5686V27.9298H136.509V25.0681H136.425C135.392 27.0154 133.14 28.2177 130.837 28.2177C127.366 28.2177 124.842 26.0333 124.842 22.799Z" fill="white"/>
<path d="M155.277 16.3135C154.938 14.4 153.601 12.9607 151.349 12.9607C148.69 12.9607 146.98 15.1959 146.98 18.8873C146.98 22.6465 148.707 24.8139 151.382 24.8139C153.516 24.8139 154.905 23.5947 155.294 21.5627H159.273C158.935 25.5759 155.836 28.2175 151.332 28.2175C146.082 28.2175 142.696 24.7123 142.696 18.8873C142.696 13.1469 146.082 9.54017 151.298 9.54017C156.039 9.54017 158.969 12.5373 159.256 16.3135H155.277Z" fill="white"/>
<path d="M166.645 5.98344V10.1829H170.032V13.4341H166.645V22.7661C166.645 24.2393 167.322 24.9166 168.813 24.9166C169.202 24.9166 169.744 24.8828 170.015 24.832V28.0493C169.558 28.1509 168.728 28.2186 167.83 28.2186C163.953 28.2186 162.429 26.847 162.429 23.3588V13.4341H159.855V10.1829H162.429V5.98344H166.645Z" fill="white"/>
<path d="M172.475 10.2684H176.692V28.2195H172.475V10.2684ZM172.238 6.2157C172.238 4.92878 173.271 3.91279 174.575 3.91279C175.896 3.91279 176.929 4.92878 176.929 6.2157C176.929 7.48569 175.896 8.50173 174.575 8.50173C173.271 8.50173 172.238 7.48569 172.238 6.2157Z" fill="white"/>
<path d="M190.566 21.2751V19.9035L186.417 20.1575C184.385 20.2929 183.217 21.2073 183.217 22.6297C183.217 24.1029 184.436 25.0342 186.265 25.0342C188.652 25.0342 190.566 23.4425 190.566 21.2751ZM179 22.799C179 19.6156 181.456 17.7022 185.824 17.4312L190.566 17.1603V15.8734C190.566 13.9938 189.296 12.9101 187.213 12.9101C185.215 12.9101 183.945 13.8752 183.674 15.3654H179.762C179.949 12.0126 182.81 9.60808 187.382 9.60808C191.836 9.60808 194.731 11.9618 194.731 15.5686V27.9298H190.667V25.0681H190.583C189.55 27.0154 187.298 28.2177 184.995 28.2177C181.523 28.2177 179 26.0333 179 22.799Z" fill="white"/>
</svg>
