<svg xmlns="http://www.w3.org/2000/svg" fill="none" viewBox="0 0 24 24">
  <path fill="url(#a)" d="M12 24a12 12 0 1 0 0-24 12 12 0 0 0 0 24Z"/>
  <path stroke="#fff" stroke-opacity=".15" d="M12 .5a11.5 11.5 0 1 1 0 23 11.5 11.5 0 0 1 0-23Z"/>
  <path fill="#fff" d="M13.25 10.52V9.11h3.22V6.87H7.52v2.24h3.23v1.41c-2.7.13-4.74.68-4.74 1.32 0 .65 2.03 1.2 4.74 1.32v4.68h2.5v-4.68c2.7-.13 4.74-.67 4.74-1.32 0-.64-2.03-1.19-4.74-1.32ZM12 12.75c-2.93 0-5.31-.45-5.31-1 0-.47 1.73-.86 4.06-.97v1.6a27.77 27.77 0 0 0 2.5 0v-1.6c2.32.1 4.06.5 4.06.97 0 .55-2.38 1-5.31 1Z"/>
  <defs>
    <linearGradient id="a" x1="12" x2="12" y1="24" y2="0" gradientUnits="userSpaceOnUse">
      <stop stop-color="#17755D"/>
      <stop offset="1" stop-color="#68CCB2"/>
    </linearGradient>
  </defs>
</svg>
