<svg width="512" height="512" viewBox="0 0 512 512" fill="none" xmlns="http://www.w3.org/2000/svg">
<path d="M363.691 305.51L264.913 406.498C262.17 409.297 257.692 409.353 254.893 406.61L153.709 307.665C150.909 304.922 150.854 300.415 153.597 297.616L209.605 240.349C214.027 235.814 221.725 238.893 221.781 245.219L222.256 286.896C222.256 288.772 221.529 290.591 220.213 291.935L210.417 301.955C207.674 304.754 207.73 309.26 210.529 311.975L254.081 354.576C256.964 357.403 261.639 357.235 264.326 354.24L307.542 305.93C310.09 303.103 309.922 298.792 307.207 296.133L299.369 288.436C298.026 287.12 297.242 285.329 297.214 283.454L296.878 250.985C296.794 244.799 304.156 241.496 308.746 245.667L363.383 295.293C366.378 298.008 366.49 302.627 363.691 305.51Z" fill="#27615C"/>
<path d="M426.914 165.102L378.407 213.609C374.572 217.443 368.358 217.443 364.524 213.609L339.193 188.278C335.358 184.443 335.358 178.229 339.193 174.423C345.351 168.237 340.984 157.685 332.251 157.685H297.236C291.833 157.685 287.439 162.051 287.439 167.481V304.632C287.439 310.063 283.044 314.457 277.642 314.457H241.815C236.385 314.457 231.99 310.063 231.99 304.632V167.481C231.99 162.051 227.624 157.685 222.194 157.685H183.791C175.058 157.685 170.692 168.237 176.878 174.423L177.773 175.318C181.608 179.153 181.608 185.367 177.773 189.173L152.442 214.532C148.608 218.367 142.394 218.367 138.559 214.532L82.2151 158.16L82.7189 157.685L135.284 105.119C137.104 103.272 139.595 102.236 142.198 102.236H373.845C376.448 102.236 378.939 103.272 380.786 105.119L426.914 151.247C430.749 155.053 430.749 161.267 426.914 165.102Z" fill="#27615C"/>
<path d="M139.601 46.5176C108 46.5176 78.6668 63.5636 63.0203 91.0218L40.6282 130.32C25.1776 157.442 25.2616 191.058 40.8521 218.069L157.599 420.269C173.302 447.475 202.523 464.353 233.928 464.353H278.153C309.558 464.353 338.779 447.475 354.482 420.297L471.145 218.209C486.791 191.114 486.819 157.442 471.285 130.292L448.641 90.8539C432.994 63.5076 403.688 46.5176 372.172 46.5176H139.601ZM233.9 493.463C192.167 493.463 153.261 470.987 132.38 434.824L15.6609 232.624C-5.10775 196.684 -5.21971 151.956 15.3251 115.905L37.7452 76.6069C58.5419 40.0799 97.5881 17.408 139.601 17.408H372.172C414.101 17.408 453.063 39.9959 473.916 76.383L496.532 115.821C517.217 151.928 517.161 196.74 496.336 232.764L379.673 434.824C358.82 470.987 319.914 493.463 278.153 493.463H233.9Z" fill="#27615C"/>
</svg>
